<svg width="114" height="23" viewBox="0 0 114 23" fill="none" xmlns="http://www.w3.org/2000/svg">
<g clip-path="url(#clip0_11_11)">
<path d="M0.000854492 0.000976562H22.6739V22.6852H0.000854492V0.000976562Z" fill="#FC6723"/>
<path d="M6.73566 5.65374C6.83541 5.63146 6.93465 5.60614 7.03744 5.6031C7.52454 5.59298 8.01114 5.62336 8.49773 5.63855C8.5747 5.6264 8.60153 5.69779 8.62989 5.75349C9.37168 7.27353 10.1028 8.79965 10.8517 10.3167C11.0127 10.6316 11.1571 10.9557 11.3393 11.2595C11.4928 11.0104 11.6173 10.7445 11.7525 10.4853C12.5936 8.86548 13.389 7.22189 14.2169 5.59551C14.7648 5.61222 15.3182 5.55804 15.8615 5.64766C15.7628 5.95805 15.585 6.23401 15.4443 6.52617C14.3577 8.60826 13.2417 10.6746 12.1449 12.7512C12.1053 12.8316 12.0867 12.9208 12.0908 13.0104C12.0928 14.4945 12.0908 15.9791 12.0918 17.4632C11.5626 17.4637 11.0335 17.4667 10.5044 17.4612C10.5099 16.0125 10.5029 14.5639 10.5079 13.1152C10.5059 12.9598 10.5256 12.7932 10.4396 12.655C9.4289 10.7592 8.41469 8.86548 7.4096 6.9672C7.18732 6.5282 6.93617 6.10337 6.73566 5.65374Z" fill="#FFFEFE"/>
<path fill-rule="evenodd" clip-rule="evenodd" d="M62.3894 4.69079C62.4563 4.6748 62.5232 4.65786 62.5903 4.64088C62.8886 4.56536 63.1899 4.48909 63.4983 4.49281C63.7075 4.50243 63.7388 4.74851 63.7576 4.91003C63.8082 5.66919 63.8345 6.42977 63.8366 7.19061C63.8589 7.67547 63.8643 8.16078 63.8696 8.64625V8.64643V8.64657C63.8723 8.88597 63.8749 9.12541 63.8796 9.36485C63.9327 9.32401 63.9857 9.28275 64.0388 9.24143C64.3943 8.96463 64.7527 8.6856 65.1743 8.51774C65.9495 8.17697 66.8797 8.17292 67.6357 8.56837C68.4483 8.97496 69.016 9.7598 69.3015 10.6074C69.5689 11.4115 69.6332 12.2728 69.5881 13.1148C69.5157 14.0987 69.2484 15.0941 68.6651 15.9023C68.3197 16.3706 67.8661 16.7813 67.3116 16.9803C66.4235 17.3053 65.3865 17.1889 64.5895 16.681C64.4187 16.5742 64.2661 16.4431 64.1137 16.312C64.0407 16.2493 63.9677 16.1866 63.8928 16.1266C63.8432 16.2814 63.8001 16.4382 63.757 16.5951C63.719 16.7333 63.681 16.8716 63.6386 17.0086C63.5522 17.0095 63.4656 17.0115 63.3789 17.0135C63.0386 17.0212 62.6973 17.029 62.3611 16.9737C62.5173 16.3485 62.5335 15.7027 62.5496 15.0612L62.554 14.8896C62.577 13.0951 62.5649 11.3004 62.5528 9.50576V9.50563C62.5484 8.85191 62.544 8.19821 62.5413 7.54454C62.5228 7.21894 62.5199 6.89209 62.517 6.56524C62.5115 5.93752 62.506 5.30977 62.3894 4.69079ZM72.2773 4.83358C72.5495 4.7484 72.8431 4.76331 73.1052 4.8756C73.3427 5.02809 73.525 5.25279 73.6252 5.51663C73.8004 6.08323 73.3401 6.7192 72.7634 6.78401C72.3178 6.83364 71.8282 6.57287 71.69 6.13134C71.5067 5.63208 71.7887 5.03105 72.2773 4.83358ZM32.0898 5.85892C32.7374 5.42549 33.4924 5.09941 34.2818 5.08928C35.0853 5.0746 35.9183 5.13181 36.6575 5.4741C36.9603 5.61284 37.2657 5.75867 37.5173 5.98146C37.365 6.24462 37.1722 6.47994 36.9801 6.71455C36.9405 6.76297 36.9008 6.81136 36.8616 6.85997C36.8221 6.83651 36.7827 6.81282 36.7432 6.7891L36.7431 6.78907C36.4887 6.6362 36.2329 6.48253 35.9502 6.38653C35.1542 6.10551 34.2494 6.04526 33.4554 6.36527C32.7911 6.61793 32.2483 7.1339 31.9075 7.75214C31.6721 8.1876 31.4751 8.64989 31.3769 9.1375C31.2893 9.61346 31.2614 10.098 31.2538 10.5811L31.2496 10.6862C31.225 11.2934 31.2003 11.9022 31.2371 12.5087C31.35 13.4004 31.6594 14.2982 32.2675 14.9762C32.8002 15.5888 33.5871 15.9483 34.3881 16.0288C34.8099 16.0521 35.2408 16.0577 35.653 15.9509C36.0218 15.87 36.3597 15.7061 36.6971 15.5424L36.6972 15.5424C36.8182 15.4836 36.9393 15.4249 37.0616 15.3701C37.332 15.6385 37.5669 15.9402 37.7877 16.2501C37.4421 16.4447 37.085 16.618 36.7183 16.7691C35.7299 17.1696 34.6337 17.1782 33.5876 17.0775C32.8351 16.921 32.1369 16.5408 31.5566 16.0415C30.8872 15.4592 30.3971 14.6865 30.1019 13.8531C29.9029 13.2915 29.8057 12.6991 29.753 12.1072C29.7484 12.0092 29.7424 11.9112 29.7364 11.8131C29.7153 11.4706 29.6942 11.1276 29.7328 10.7851C29.748 9.9512 29.8832 9.11016 30.2158 8.34052C30.6163 7.37492 31.2174 6.45894 32.0898 5.85892ZM94.4099 6.30353C94.8443 6.16378 95.2904 6.06049 95.7395 5.97998C95.6737 6.80684 95.6129 7.63421 95.5841 8.4636C95.8427 8.46973 96.1015 8.47361 96.3602 8.47749C96.807 8.48419 97.2539 8.49089 97.7006 8.50917C97.5785 8.82614 97.4488 9.14017 97.3117 9.45097C97.0627 9.45182 96.8135 9.45151 96.5644 9.4512C96.2193 9.45078 95.8743 9.45035 95.5294 9.453C95.5283 9.87574 95.5304 10.2983 95.5325 10.7209C95.5343 11.0632 95.536 11.4054 95.536 11.7477C95.5325 12.044 95.541 12.34 95.5495 12.6361V12.6362C95.5583 12.9473 95.5672 13.2585 95.5623 13.5701C95.5674 13.7863 95.5674 14.0029 95.5673 14.2196C95.5672 14.6928 95.5671 15.1663 95.6205 15.637C95.6403 15.9226 95.897 16.1236 96.1552 16.1965C96.5856 16.2952 97.0353 16.2603 97.4616 16.156C97.5764 16.4044 97.6289 16.6771 97.6145 16.9504C97.2288 17.1514 96.7866 17.1907 96.3609 17.2286L96.3573 17.2289C95.7547 17.2532 95.0828 17.1575 94.6499 16.6952C94.3495 16.4162 94.322 15.9985 94.2963 15.6076C94.2915 15.5346 94.2867 15.4625 94.2803 15.3924C94.2484 14.677 94.2491 13.9605 94.2497 13.2442C94.25 12.9814 94.2502 12.7187 94.2489 12.4561C94.2481 12.0585 94.2484 11.6609 94.2487 11.2633V11.2553C94.2492 10.6547 94.2497 10.0542 94.2463 9.4535C93.9905 9.45006 93.7349 9.4506 93.4795 9.45113H93.4794C93.3593 9.45139 93.2392 9.45164 93.1192 9.45148C93.105 9.12438 93.1071 8.79677 93.1172 8.46967C93.2548 8.46854 93.3925 8.46896 93.5301 8.46937C93.7616 8.47007 93.9931 8.47077 94.2246 8.46411C94.2412 8.25108 94.254 8.03762 94.2668 7.82413C94.2973 7.31551 94.3279 6.80676 94.4099 6.30353ZM41.9992 8.2884C42.2397 8.25782 42.4823 8.26164 42.7244 8.26546L42.7244 8.26546C42.7789 8.26632 42.8334 8.26718 42.8878 8.26764C42.9551 8.26987 43.0226 8.27097 43.0903 8.27207C43.3759 8.27671 43.6635 8.28139 43.937 8.37144C44.7132 8.63829 45.3963 9.17704 45.8115 9.88794C46.1649 10.5011 46.4135 11.1892 46.4419 11.9017C46.4859 12.8587 46.5178 13.8435 46.2181 14.7666C45.9391 15.6324 45.3284 16.4041 44.5117 16.8178C43.6995 17.2375 42.7273 17.316 41.8488 17.0795C41.0589 16.8719 40.3733 16.3514 39.9202 15.6775C39.4164 14.9549 39.2462 14.0602 39.2153 13.1949C39.1951 12.3579 39.1789 11.4966 39.4574 10.6946C39.7202 9.90364 40.228 9.18058 40.9399 8.73449C41.267 8.53398 41.6205 8.36182 41.9992 8.2884ZM48.7802 8.55423C49.1732 8.42797 49.5738 8.327 49.9797 8.25195C50.1457 8.63197 50.2472 9.03704 50.28 9.45046C50.4452 9.36465 50.5889 9.248 50.7327 9.13119C50.8299 9.05225 50.9272 8.97324 51.0314 8.90361C51.6208 8.48183 52.3367 8.21346 53.0684 8.24486C53.2335 8.256 53.3935 8.30866 53.5413 8.38309C53.793 8.50917 54.0497 8.63879 54.2548 8.83677C54.4364 9.0082 54.5612 9.22572 54.6847 9.441C54.7083 9.48199 54.7317 9.52289 54.7555 9.56338C54.9698 9.46776 55.1527 9.32354 55.3356 9.17927C55.4346 9.1012 55.5336 9.02313 55.6376 8.95273C56.1515 8.59778 56.7374 8.31625 57.3662 8.25498C57.942 8.18916 58.5445 8.38208 58.9658 8.7831L58.9958 8.81189L58.9958 8.8119C59.1772 8.98556 59.3642 9.16473 59.464 9.39983C59.5663 9.64186 59.5977 9.90617 59.6215 10.1659C59.6796 10.9596 59.6809 11.7551 59.6822 12.5506C59.6831 13.1269 59.684 13.7033 59.7066 14.279C59.7066 14.7527 59.7084 15.2262 59.7101 15.6998V15.6998C59.7118 16.1369 59.7134 16.574 59.7137 17.0112C59.258 17.0178 58.8027 17.0208 58.3475 17.0082C58.3486 16.0328 58.3484 15.0578 58.3482 14.0826L58.348 12.9118C58.3472 12.7264 58.3474 12.5409 58.3477 12.3554C58.3486 11.6625 58.3496 10.9693 58.2929 10.2783C58.2742 10.1387 58.2273 10.0044 58.155 9.88353C58.0826 9.76269 57.9864 9.65788 57.8721 9.57553C57.6066 9.40056 57.2724 9.41953 56.9694 9.43673L56.9683 9.43679C56.43 9.48743 55.9799 9.82465 55.5738 10.1533C55.5007 10.215 55.4266 10.2754 55.3524 10.3358C55.2313 10.4344 55.1102 10.5331 54.994 10.6373C54.9501 10.6721 54.9497 10.7282 54.9493 10.7815C54.9492 10.7988 54.9491 10.8159 54.9474 10.8318L54.9481 12.3017C54.9489 13.8712 54.9498 15.4409 54.9459 17.0107C54.4928 17.0183 54.0391 17.0203 53.5864 17.0087V17.0083V17.0079C53.5869 15.4061 53.5874 13.8048 53.5859 12.203C53.585 12.1024 53.5851 12.0017 53.5852 11.9011C53.5855 11.6126 53.5857 11.3239 53.5621 11.0363C53.5567 10.9479 53.5545 10.858 53.5523 10.7676V10.7676C53.5446 10.4541 53.5368 10.1352 53.393 9.85301C53.1165 9.4616 52.5686 9.37958 52.1291 9.48793C51.4441 9.65249 50.8531 10.0748 50.3352 10.5376C50.2583 10.5867 50.2585 10.6782 50.2587 10.7597L50.2587 10.7821C50.2607 11.8196 50.2603 12.8573 50.26 13.8949C50.2596 14.9325 50.2592 15.9702 50.2612 17.0077C49.8638 17.0198 49.4658 17.0208 49.0688 17.0066C49.0526 16.0902 49.0483 15.1733 49.044 14.2563V14.256C49.0384 13.0479 49.0327 11.8396 48.9999 10.6318C48.9979 10.5524 48.9963 10.4731 48.9946 10.3937V10.3936C48.9862 9.99065 48.9778 9.58732 48.9245 9.18716C48.906 9.08468 48.8802 8.98384 48.8545 8.883C48.8267 8.77409 48.7988 8.66519 48.7802 8.55423ZM71.9596 8.4793C72.3961 8.4155 72.8305 8.34005 73.2634 8.256C73.3028 9.10941 73.3043 9.96437 73.3058 10.819V10.8191C73.3064 11.1621 73.307 11.5052 73.31 11.848C73.3114 13.05 73.3111 14.2519 73.3108 15.4537V15.4615L73.3105 17.0092C72.8589 17.0193 72.4072 17.0193 71.9555 17.0097C71.9468 15.485 71.9481 13.9602 71.9494 12.4354C71.9502 11.4971 71.951 10.5588 71.9495 9.62059C71.9503 9.50185 71.9498 9.38305 71.9493 9.26423V9.26316C71.9482 9.00185 71.9471 8.74045 71.9596 8.4793ZM85.3509 9.19425C86.2577 8.69449 87.2517 8.26157 88.3069 8.26916C88.3826 8.26968 88.4586 8.26941 88.5346 8.26915C88.8306 8.26812 89.1281 8.26708 89.4214 8.3122C90.3419 8.48638 91.1288 9.31426 91.1531 10.2692C91.1823 11.1135 91.1732 11.9584 91.1641 12.8032C91.1579 13.3796 91.1517 13.9559 91.1576 14.5321C91.1596 14.6085 91.1606 14.6851 91.1617 14.7618C91.1665 15.1093 91.1713 15.4589 91.2564 15.797C91.3059 16.0204 91.4825 16.1636 91.6534 16.3022C91.6956 16.3364 91.7374 16.3703 91.7769 16.4051C91.7223 16.4797 91.6704 16.557 91.6185 16.6343L91.6185 16.6345C91.4841 16.8347 91.3494 17.0354 91.1657 17.1925C91.0181 17.3159 90.8358 17.1831 90.7108 17.092L90.709 17.0907C90.3789 16.8461 90.1546 16.4907 89.9723 16.1286C89.8164 16.2136 89.68 16.3253 89.5434 16.4372L89.5434 16.4372C89.4235 16.5354 89.3035 16.6337 89.1702 16.714C88.6735 17.0289 88.0877 17.2163 87.4973 17.2077C86.9676 17.2198 86.4248 17.1317 85.9479 16.8952C85.1731 16.4861 84.7428 15.5939 84.765 14.7357C84.7585 13.9108 85.1767 13.1078 85.839 12.6212C86.6319 12.0293 87.6396 11.8343 88.6067 11.7634C88.9083 11.7368 89.2111 11.7274 89.5139 11.7181L89.514 11.718C89.655 11.7137 89.7959 11.7093 89.9368 11.7032C89.9546 11.2703 89.9216 10.8368 89.8599 10.4085C89.8077 10.0444 89.634 9.67174 89.2999 9.48895C88.8993 9.2778 88.4259 9.27274 87.9879 9.33603C87.1616 9.43679 86.3858 9.78971 85.7134 10.2712C85.6736 10.2145 85.6333 10.1581 85.593 10.1016L85.5929 10.1015C85.4515 9.90358 85.3099 9.70544 85.1914 9.4935C85.1169 9.3573 85.2375 9.24995 85.3509 9.19425ZM102.05 8.28739C102.577 8.21412 103.112 8.22901 103.634 8.33144C104.413 8.51804 105.097 8.97945 105.562 9.63072C105.935 10.1523 106.178 10.7629 106.294 11.3923C106.384 11.9955 106.418 12.6057 106.396 13.2151C106.373 14.2055 106.068 15.2015 105.464 15.9934C104.975 16.6274 104.218 17.0077 103.441 17.1484C102.497 17.3135 101.473 17.1464 100.683 16.5854C99.9908 16.0922 99.5493 15.3205 99.3098 14.518C99.1891 14.1414 99.161 13.7456 99.1332 13.3537V13.3536L99.127 13.2663L99.1269 13.2617C99.1137 12.5553 99.1004 11.8404 99.2434 11.1447C99.4394 10.3543 99.8293 9.59426 100.434 9.03881C100.881 8.62546 101.446 8.36264 102.05 8.28739ZM108.711 8.57753C108.809 8.54995 108.907 8.52179 109.004 8.49363C109.312 8.40489 109.621 8.31608 109.933 8.24536C110.151 8.66158 110.194 9.13552 110.216 9.59629C110.377 9.47669 110.516 9.33432 110.656 9.192C110.699 9.14813 110.742 9.10427 110.786 9.06108C111.377 8.47575 112.231 8.12182 113.067 8.27169V8.37651C112.968 8.595 112.888 8.82142 112.809 9.04779L112.809 9.04799C112.742 9.2381 112.676 9.42817 112.597 9.61351C112.58 9.66725 112.522 9.66995 112.469 9.67241C112.449 9.67338 112.429 9.67431 112.412 9.67832L112.318 9.68027C111.982 9.68678 111.632 9.69353 111.332 9.86161C111.01 10.0506 110.725 10.2986 110.494 10.5928C110.311 10.824 110.307 11.121 110.302 11.4059C110.301 11.4698 110.3 11.533 110.297 11.5948C110.276 12.0845 110.265 12.5741 110.271 13.0637C110.27 13.722 110.27 14.3802 110.27 15.0383C110.27 15.6953 110.27 16.3522 110.269 17.0092C109.816 17.0193 109.363 17.0193 108.911 17.0092C108.906 16.1292 108.907 15.2491 108.908 14.369V14.3599C108.908 13.7759 108.909 13.1919 108.908 12.608C108.906 12.3548 108.905 12.1014 108.905 11.848C108.903 11.1044 108.902 10.3605 108.863 9.61806C108.858 9.42334 108.821 9.23325 108.784 9.04318L108.784 9.04307C108.754 8.88869 108.724 8.73433 108.711 8.57753ZM75.9658 8.59424C76.0135 8.57919 76.0613 8.56384 76.1092 8.54847C76.4642 8.43448 76.8244 8.31883 77.1987 8.3117C77.3514 8.70329 77.4512 9.1135 77.4955 9.53148C77.6608 9.42916 77.8143 9.30993 77.9677 9.19068C78.1469 9.05144 78.3261 8.91218 78.5243 8.79981C79.2322 8.37955 80.1158 8.09194 80.9229 8.39322C81.3963 8.56031 81.8566 8.82918 82.1432 9.25299C82.3776 9.55983 82.4318 9.9563 82.4561 10.3305C82.5064 11.2687 82.51 12.2082 82.5135 13.1475V13.1476C82.515 13.5415 82.5165 13.9353 82.5214 14.3291C82.5209 14.8211 82.5261 15.3129 82.5314 15.8046C82.5357 16.2057 82.54 16.6067 82.5412 17.0077C82.088 17.0208 81.6343 17.0193 81.1811 17.0087C81.1809 16.2411 81.1728 15.4736 81.1648 14.706V14.7058C81.1575 14.0064 81.1502 13.307 81.1487 12.6075C81.1427 12.357 81.1425 12.106 81.1424 11.855C81.142 11.2882 81.1417 10.7212 81.0733 10.1583C80.9507 9.76895 80.574 9.44337 80.1558 9.43274C79.8469 9.42008 79.5269 9.40844 79.2322 9.5173C78.5841 9.75883 78.0003 10.1452 77.4722 10.5877C77.4632 11.8544 77.4645 13.1214 77.4658 14.3885C77.4667 15.2624 77.4676 16.1363 77.4651 17.0102C77.0681 17.0183 76.6711 17.0203 76.2747 17.0077C76.2738 16.3491 76.2645 15.6908 76.2552 15.0324L76.2552 15.0315C76.2473 14.4767 76.2395 13.9219 76.2367 13.367C76.2343 13.096 76.2328 12.8249 76.2314 12.5539C76.2262 11.5757 76.221 10.5975 76.1698 9.62059C76.1601 9.36881 76.0982 9.12635 76.0363 8.88396L76.0363 8.88375C76.0117 8.78743 75.9871 8.69112 75.9658 8.59424ZM43.8557 9.56181C43.361 9.27167 42.7509 9.22813 42.2 9.35826C41.7447 9.4656 41.3149 9.72637 41.0632 10.1274C40.7052 10.6996 40.6536 11.3958 40.6131 12.052C40.567 12.5406 40.6095 13.0308 40.6526 13.5179C40.724 14.1068 40.8364 14.7068 41.1214 15.2339C41.4328 15.7868 42.0713 16.0699 42.684 16.1124C43.2683 16.1504 43.9033 15.9929 44.319 15.5589C44.6552 15.1903 44.8486 14.7078 44.9165 14.2171C44.9997 13.6216 44.9892 13.0184 44.9788 12.4187C44.9785 12.3979 44.9781 12.3771 44.9778 12.3563C44.9489 11.7107 44.9043 11.0469 44.6436 10.4464C44.4853 10.073 44.2084 9.76206 43.8557 9.56181ZM103.491 9.42307C103.062 9.27724 102.595 9.28838 102.151 9.34813C101.513 9.41801 100.998 9.92334 100.792 10.5122C100.572 11.0405 100.565 11.6135 100.558 12.1775C100.557 12.2708 100.556 12.364 100.554 12.4566C100.556 12.5424 100.559 12.6283 100.561 12.7143C100.573 13.2454 100.586 13.7778 100.682 14.3017C100.76 14.7098 100.893 15.124 101.17 15.443C101.435 15.761 101.82 15.9615 102.221 16.0491C102.789 16.1762 103.413 16.1124 103.921 15.8177C104.264 15.6207 104.496 15.2784 104.643 14.9184C104.8 14.5317 104.832 14.1121 104.862 13.6993C104.866 13.6564 104.869 13.6137 104.872 13.571C104.899 13.0318 104.904 12.491 104.873 11.9518C104.827 11.3877 104.765 10.8018 104.489 10.2975C104.25 9.91929 103.898 9.60687 103.491 9.42307ZM66.6645 9.54156C66.2969 9.46003 65.9141 9.46965 65.5414 9.50054C64.8619 9.59573 64.3196 10.0636 63.875 10.5532C63.8605 10.6663 63.8624 10.78 63.8643 10.8939C63.8651 10.9422 63.8659 10.9905 63.8654 11.0388C63.8661 11.9057 63.8659 12.7723 63.8656 13.639C63.8655 14.0723 63.8654 14.5057 63.8654 14.9392C63.8463 15.0528 63.9267 15.1271 64.0029 15.1975C64.0194 15.2127 64.0357 15.2278 64.0507 15.243C64.7095 15.8744 65.6938 16.1762 66.586 15.9483C67.0179 15.839 67.387 15.5417 67.6103 15.1594C67.9278 14.6182 68.0392 13.9873 68.1076 13.3715C68.1136 13.2717 68.1211 13.1719 68.1285 13.0719C68.1562 12.6977 68.1841 12.3227 68.1425 11.9487C68.1172 11.3978 68.0134 10.8337 67.7293 10.3537C67.4979 9.9603 67.1171 9.63877 66.6645 9.54156ZM88.6788 12.6115C88.3201 12.6434 87.9598 12.6753 87.6124 12.7725C87.1243 12.9113 86.6747 13.2181 86.4154 13.6602C86.2829 13.8791 86.27 14.1393 86.2575 14.3898C86.2561 14.4196 86.2546 14.4494 86.2529 14.4789C86.2517 14.5302 86.2496 14.5819 86.2475 14.6339C86.237 14.8928 86.2262 15.1575 86.3278 15.4C86.4484 15.6901 86.6448 15.9747 86.9451 16.0987C87.2919 16.244 87.6783 16.2582 88.0484 16.2253C88.4915 16.1716 88.8879 15.9326 89.2302 15.6587C89.5168 15.4207 89.7953 15.1103 89.815 14.7184C89.8584 14.1875 89.8612 13.6542 89.864 13.1213C89.8648 12.9579 89.8657 12.7945 89.8677 12.6313C89.7158 12.6361 89.5648 12.6231 89.4139 12.6101C89.2307 12.5944 89.0477 12.5787 88.8636 12.5948C88.8021 12.6006 88.7405 12.6061 88.6788 12.6115Z" fill="#FC6723"/>
</g>
<defs>
<clipPath id="clip0_11_11">
<rect width="113.067" height="22.6842" fill="white"/>
</clipPath>
</defs>
</svg>
